<svg xmlns="http://www.w3.org/2000/svg" viewBox="0 0 1600 420" role="img" aria-labelledby="title desc"><title id="title">CampusOS</title><desc id="desc">A modern campus service platform</desc><defs><linearGradient id="bg" x1="0" y1="0" x2="1" y2="1"><stop stop-color="#0f172a"/><stop offset="1" stop-color="#155e75"/></linearGradient><linearGradient id="glow" x1="0" y1="0" x2="1" y2="0"><stop stop-color="#22d3ee"/><stop offset="1" stop-color="#a7f3d0"/></linearGradient></defs><rect width="1600" height="420" rx="28" fill="url(#bg)"/><circle cx="1370" cy="-10" r="260" fill="#22d3ee" opacity=".12"/><circle cx="1480" cy="390" r="300" fill="#a7f3d0" opacity=".1"/><path d="M0 338C270 270 430 390 700 320s410-110 900-18v118H0Z" fill="#020617" opacity=".38"/><text x="100" y="175" fill="white" font-family="Inter,Segoe UI,sans-serif" font-size="92" font-weight="700">CampusOS</text><rect x="105" y="205" width="310" height="5" rx="3" fill="url(#glow)"/><text x="105" y="268" fill="#cbd5e1" font-family="Inter,Segoe UI,sans-serif" font-size="30">One platform for everyday campus services</text><text x="105" y="318" fill="#94a3b8" font-family="Inter,Segoe UI,sans-serif" font-size="22">Spring Boot  ·  Vue 3  ·  uni-app  ·  MySQL  ·  Docker</text><g transform="translate(1160 105)" fill="none" stroke="url(#glow)" stroke-width="8" opacity=".9"><rect x="0" y="35" width="180" height="150" rx="18"/><path d="M35 35V0h110v35M40 85h100M40 125h60"/><circle cx="140" cy="125" r="10" fill="#a7f3d0" stroke="none"/></g></svg>
